<mxfile modified="2019-11-08T12:42:37.195Z" host="www.draw.io" agent="Mozilla/5.0 (Windows NT 10.0; Win64; x64) AppleWebKit/537.36 (KHTML, like Gecko) Chrome/78.0.3904.87 Safari/537.36" etag="k2WWT43SkN5C68Jd0T0D" version="12.2.2" type="github" pages="1">
  <diagram id="mRLPYXcY2qG83QS4q_Lh" name="Page-1">
    <mxGraphModel dx="1536" dy="1651" grid="1" gridSize="10" guides="1" tooltips="1" connect="1" arrows="1" fold="1" page="1" pageScale="1" pageWidth="1169" pageHeight="827" math="0" shadow="0">
      <root>
        <mxCell id="0"/>
        <mxCell id="1" parent="0"/>
        <mxCell id="ZfgZCXiSNuTh51ps36tP-8" value="&lt;font style=&quot;font-size: 14px&quot;&gt;&lt;b&gt;aim: find a traffic solution&lt;/b&gt;&lt;br&gt;1. departure (mandatory)&lt;br&gt;2. destination (mandatory)&lt;br&gt;3. vehicle (mandatory)&lt;br&gt;4. departure time (default:now)&lt;br&gt;&lt;br&gt;&lt;/font&gt;" style="text;html=1;strokeColor=none;fillColor=none;align=left;verticalAlign=middle;whiteSpace=wrap;rounded=0;" parent="1" vertex="1">
          <mxGeometry x="260" y="-46" width="204" height="91" as="geometry"/>
        </mxCell>
        <mxCell id="ZfgZCXiSNuTh51ps36tP-15" style="edgeStyle=orthogonalEdgeStyle;rounded=0;orthogonalLoop=1;jettySize=auto;html=1;exitX=1;exitY=0.5;exitDx=0;exitDy=0;entryX=0.5;entryY=0;entryDx=0;entryDy=0;" parent="1" source="ZfgZCXiSNuTh51ps36tP-9" target="QggBV8KZawPynLN42XGY-13" edge="1">
          <mxGeometry relative="1" as="geometry">
            <mxPoint x="962.3333333333335" y="440.33333333333337" as="targetPoint"/>
          </mxGeometry>
        </mxCell>
        <mxCell id="ZfgZCXiSNuTh51ps36tP-16" value="no 1" style="text;html=1;resizable=0;points=[];align=center;verticalAlign=middle;labelBackgroundColor=#ffffff;" parent="ZfgZCXiSNuTh51ps36tP-15" vertex="1" connectable="0">
          <mxGeometry x="-0.4433" y="4" relative="1" as="geometry">
            <mxPoint x="167" y="70.5" as="offset"/>
          </mxGeometry>
        </mxCell>
        <mxCell id="ZfgZCXiSNuTh51ps36tP-17" style="edgeStyle=orthogonalEdgeStyle;rounded=0;orthogonalLoop=1;jettySize=auto;html=1;exitX=0.5;exitY=1;exitDx=0;exitDy=0;entryX=0.5;entryY=0;entryDx=0;entryDy=0;" parent="1" source="ZfgZCXiSNuTh51ps36tP-9" target="QggBV8KZawPynLN42XGY-10" edge="1">
          <mxGeometry relative="1" as="geometry">
            <mxPoint x="532" y="440" as="targetPoint"/>
          </mxGeometry>
        </mxCell>
        <mxCell id="ZfgZCXiSNuTh51ps36tP-18" value="no 3" style="text;html=1;resizable=0;points=[];align=center;verticalAlign=middle;labelBackgroundColor=#ffffff;" parent="ZfgZCXiSNuTh51ps36tP-17" vertex="1" connectable="0">
          <mxGeometry x="0.1177" y="-5" relative="1" as="geometry">
            <mxPoint as="offset"/>
          </mxGeometry>
        </mxCell>
        <mxCell id="ZfgZCXiSNuTh51ps36tP-19" style="edgeStyle=orthogonalEdgeStyle;rounded=0;orthogonalLoop=1;jettySize=auto;html=1;exitX=1;exitY=0.5;exitDx=0;exitDy=0;entryX=0.5;entryY=0;entryDx=0;entryDy=0;" parent="1" source="ZfgZCXiSNuTh51ps36tP-9" target="QggBV8KZawPynLN42XGY-11" edge="1">
          <mxGeometry relative="1" as="geometry">
            <mxPoint x="742" y="440" as="targetPoint"/>
          </mxGeometry>
        </mxCell>
        <mxCell id="ZfgZCXiSNuTh51ps36tP-20" value="no 2" style="text;html=1;resizable=0;points=[];align=center;verticalAlign=middle;labelBackgroundColor=#ffffff;" parent="ZfgZCXiSNuTh51ps36tP-19" vertex="1" connectable="0">
          <mxGeometry x="0.5414" relative="1" as="geometry">
            <mxPoint as="offset"/>
          </mxGeometry>
        </mxCell>
        <mxCell id="ZfgZCXiSNuTh51ps36tP-27" style="edgeStyle=orthogonalEdgeStyle;rounded=0;orthogonalLoop=1;jettySize=auto;html=1;exitX=0;exitY=0.5;exitDx=0;exitDy=0;" parent="1" source="ZfgZCXiSNuTh51ps36tP-9" target="ZfgZCXiSNuTh51ps36tP-26" edge="1">
          <mxGeometry relative="1" as="geometry"/>
        </mxCell>
        <mxCell id="ZfgZCXiSNuTh51ps36tP-28" value="if 1 and 2 and 3" style="text;html=1;resizable=0;points=[];align=center;verticalAlign=middle;labelBackgroundColor=#ffffff;" parent="ZfgZCXiSNuTh51ps36tP-27" vertex="1" connectable="0">
          <mxGeometry x="0.231" y="-1" relative="1" as="geometry">
            <mxPoint x="83" y="0.5" as="offset"/>
          </mxGeometry>
        </mxCell>
        <mxCell id="8I36uN0yoBxdI9GfPvDn-3" style="edgeStyle=orthogonalEdgeStyle;rounded=0;orthogonalLoop=1;jettySize=auto;html=1;exitX=0.633;exitY=0.147;exitDx=0;exitDy=0;entryX=0.5;entryY=1;entryDx=0;entryDy=0;exitPerimeter=0;" parent="1" source="ZfgZCXiSNuTh51ps36tP-9" target="8I36uN0yoBxdI9GfPvDn-1" edge="1">
          <mxGeometry relative="1" as="geometry"/>
        </mxCell>
        <mxCell id="8I36uN0yoBxdI9GfPvDn-4" value="no 1 and 2 and 3" style="text;html=1;resizable=0;points=[];align=center;verticalAlign=middle;labelBackgroundColor=#ffffff;" parent="8I36uN0yoBxdI9GfPvDn-3" vertex="1" connectable="0">
          <mxGeometry x="-0.3026" y="-4" relative="1" as="geometry">
            <mxPoint as="offset"/>
          </mxGeometry>
        </mxCell>
        <mxCell id="ZfgZCXiSNuTh51ps36tP-9" value="&lt;font style=&quot;font-size: 14px&quot;&gt;slot 1,2,3?&lt;br&gt;&lt;/font&gt;" style="rhombus;whiteSpace=wrap;html=1;" parent="1" vertex="1">
          <mxGeometry x="531.5" y="305" width="157" height="60" as="geometry"/>
        </mxCell>
        <mxCell id="Bp368eZwY5FMxALbpwGz-2" style="edgeStyle=orthogonalEdgeStyle;rounded=0;orthogonalLoop=1;jettySize=auto;html=1;exitX=0.5;exitY=1;exitDx=0;exitDy=0;entryX=0.5;entryY=0;entryDx=0;entryDy=0;" edge="1" parent="1" source="ZfgZCXiSNuTh51ps36tP-25" target="Bp368eZwY5FMxALbpwGz-1">
          <mxGeometry relative="1" as="geometry">
            <Array as="points">
              <mxPoint x="279" y="680"/>
              <mxPoint x="339" y="680"/>
            </Array>
          </mxGeometry>
        </mxCell>
        <mxCell id="ZfgZCXiSNuTh51ps36tP-25" value="&lt;font style=&quot;font-size: 14px&quot;&gt;search traffic solutions with default 4&lt;/font&gt;" style="rounded=1;whiteSpace=wrap;html=1;" parent="1" vertex="1">
          <mxGeometry x="206.5" y="613" width="144" height="50" as="geometry"/>
        </mxCell>
        <mxCell id="ZfgZCXiSNuTh51ps36tP-29" style="edgeStyle=orthogonalEdgeStyle;rounded=0;orthogonalLoop=1;jettySize=auto;html=1;exitX=0.5;exitY=1;exitDx=0;exitDy=0;" parent="1" source="ZfgZCXiSNuTh51ps36tP-26" target="ZfgZCXiSNuTh51ps36tP-25" edge="1">
          <mxGeometry relative="1" as="geometry"/>
        </mxCell>
        <mxCell id="ZfgZCXiSNuTh51ps36tP-30" value="no 4" style="text;html=1;resizable=0;points=[];align=center;verticalAlign=middle;labelBackgroundColor=#ffffff;" parent="ZfgZCXiSNuTh51ps36tP-29" vertex="1" connectable="0">
          <mxGeometry x="0.3451" y="-4" relative="1" as="geometry">
            <mxPoint as="offset"/>
          </mxGeometry>
        </mxCell>
        <mxCell id="ZfgZCXiSNuTh51ps36tP-32" value="if 4" style="edgeStyle=orthogonalEdgeStyle;rounded=0;orthogonalLoop=1;jettySize=auto;html=1;exitX=1;exitY=0.5;exitDx=0;exitDy=0;entryX=0.5;entryY=0;entryDx=0;entryDy=0;" parent="1" source="ZfgZCXiSNuTh51ps36tP-26" target="ZfgZCXiSNuTh51ps36tP-31" edge="1">
          <mxGeometry relative="1" as="geometry">
            <Array as="points">
              <mxPoint x="393" y="560"/>
              <mxPoint x="466" y="560"/>
            </Array>
          </mxGeometry>
        </mxCell>
        <mxCell id="ZfgZCXiSNuTh51ps36tP-26" value="&lt;font style=&quot;font-size: 14px&quot;&gt;slot 4?&lt;br&gt;&lt;/font&gt;" style="rhombus;whiteSpace=wrap;html=1;" parent="1" vertex="1">
          <mxGeometry x="236" y="435" width="157" height="60" as="geometry"/>
        </mxCell>
        <mxCell id="Bp368eZwY5FMxALbpwGz-4" style="edgeStyle=orthogonalEdgeStyle;rounded=0;orthogonalLoop=1;jettySize=auto;html=1;exitX=0.5;exitY=1;exitDx=0;exitDy=0;entryX=0.5;entryY=0;entryDx=0;entryDy=0;" edge="1" parent="1" source="ZfgZCXiSNuTh51ps36tP-31" target="Bp368eZwY5FMxALbpwGz-1">
          <mxGeometry relative="1" as="geometry">
            <Array as="points">
              <mxPoint x="466" y="680"/>
              <mxPoint x="339" y="680"/>
            </Array>
          </mxGeometry>
        </mxCell>
        <mxCell id="ZfgZCXiSNuTh51ps36tP-31" value="&lt;font style=&quot;font-size: 14px&quot;&gt;search traffic solutions with 4&lt;/font&gt;" style="rounded=1;whiteSpace=wrap;html=1;" parent="1" vertex="1">
          <mxGeometry x="394" y="613" width="144" height="50" as="geometry"/>
        </mxCell>
        <mxCell id="ZfgZCXiSNuTh51ps36tP-45" style="edgeStyle=orthogonalEdgeStyle;rounded=0;orthogonalLoop=1;jettySize=auto;html=1;exitX=1;exitY=0.5;exitDx=0;exitDy=0;entryX=0;entryY=0.5;entryDx=0;entryDy=0;" parent="1" source="QggBV8KZawPynLN42XGY-16" target="QggBV8KZawPynLN42XGY-17" edge="1">
          <mxGeometry relative="1" as="geometry">
            <mxPoint x="514" y="802" as="sourcePoint"/>
            <mxPoint x="587" y="802" as="targetPoint"/>
          </mxGeometry>
        </mxCell>
        <mxCell id="ZfgZCXiSNuTh51ps36tP-46" value="" style="edgeStyle=orthogonalEdgeStyle;rounded=0;orthogonalLoop=1;jettySize=auto;html=1;exitX=0.5;exitY=1;exitDx=0;exitDy=0;" parent="1" source="QggBV8KZawPynLN42XGY-17" target="ZfgZCXiSNuTh51ps36tP-39" edge="1">
          <mxGeometry relative="1" as="geometry">
            <mxPoint x="659" y="826.5" as="sourcePoint"/>
          </mxGeometry>
        </mxCell>
        <mxCell id="ZfgZCXiSNuTh51ps36tP-47" style="edgeStyle=orthogonalEdgeStyle;rounded=0;orthogonalLoop=1;jettySize=auto;html=1;exitX=0;exitY=0.5;exitDx=0;exitDy=0;entryX=0;entryY=0.5;entryDx=0;entryDy=0;" parent="1" source="ZfgZCXiSNuTh51ps36tP-39" target="SC0irEmLNPOG6XTOwJBE-1" edge="1">
          <mxGeometry relative="1" as="geometry">
            <Array as="points">
              <mxPoint x="180" y="911"/>
              <mxPoint x="180" y="217"/>
            </Array>
          </mxGeometry>
        </mxCell>
        <mxCell id="ZfgZCXiSNuTh51ps36tP-48" value="no but with changing values" style="text;html=1;resizable=0;points=[];align=center;verticalAlign=middle;labelBackgroundColor=#ffffff;" parent="ZfgZCXiSNuTh51ps36tP-47" vertex="1" connectable="0">
          <mxGeometry x="-0.6881" y="2" relative="1" as="geometry">
            <mxPoint as="offset"/>
          </mxGeometry>
        </mxCell>
        <mxCell id="NU3nB0P4sIsA8TsXFs1R-1" style="edgeStyle=orthogonalEdgeStyle;rounded=0;orthogonalLoop=1;jettySize=auto;html=1;exitX=1;exitY=0.5;exitDx=0;exitDy=0;entryX=0;entryY=0.5;entryDx=0;entryDy=0;" parent="1" source="ZfgZCXiSNuTh51ps36tP-39" target="QggBV8KZawPynLN42XGY-4" edge="1">
          <mxGeometry relative="1" as="geometry">
            <Array as="points">
              <mxPoint x="770" y="911"/>
              <mxPoint x="770" y="911"/>
            </Array>
            <mxPoint x="750" y="90" as="targetPoint"/>
          </mxGeometry>
        </mxCell>
        <mxCell id="NU3nB0P4sIsA8TsXFs1R-2" value="only no" style="text;html=1;resizable=0;points=[];align=center;verticalAlign=middle;labelBackgroundColor=#ffffff;" parent="NU3nB0P4sIsA8TsXFs1R-1" vertex="1" connectable="0">
          <mxGeometry x="-0.9432" relative="1" as="geometry">
            <mxPoint x="106" y="-1.5" as="offset"/>
          </mxGeometry>
        </mxCell>
        <mxCell id="f-6FJ4sSomG_5JssJ1dM-2" style="edgeStyle=orthogonalEdgeStyle;rounded=0;orthogonalLoop=1;jettySize=auto;html=1;exitX=0.62;exitY=0.123;exitDx=0;exitDy=0;entryX=0.5;entryY=1;entryDx=0;entryDy=0;exitPerimeter=0;" parent="1" source="ZfgZCXiSNuTh51ps36tP-39" target="f-6FJ4sSomG_5JssJ1dM-1" edge="1">
          <mxGeometry relative="1" as="geometry"/>
        </mxCell>
        <mxCell id="f-6FJ4sSomG_5JssJ1dM-3" value="nothing about traffic" style="text;html=1;resizable=0;points=[];align=center;verticalAlign=middle;labelBackgroundColor=#ffffff;" parent="f-6FJ4sSomG_5JssJ1dM-2" vertex="1" connectable="0">
          <mxGeometry x="-0.3831" y="-1" relative="1" as="geometry">
            <mxPoint x="18.5" y="-3" as="offset"/>
          </mxGeometry>
        </mxCell>
        <mxCell id="8VmAoK-VRIJGXfAfbS5j-1" style="edgeStyle=orthogonalEdgeStyle;rounded=0;orthogonalLoop=1;jettySize=auto;html=1;exitX=0.5;exitY=1;exitDx=0;exitDy=0;" parent="1" source="ZfgZCXiSNuTh51ps36tP-39" target="QggBV8KZawPynLN42XGY-2" edge="1">
          <mxGeometry relative="1" as="geometry"/>
        </mxCell>
        <mxCell id="8VmAoK-VRIJGXfAfbS5j-2" value="yes" style="text;html=1;resizable=0;points=[];align=center;verticalAlign=middle;labelBackgroundColor=#ffffff;" parent="8VmAoK-VRIJGXfAfbS5j-1" vertex="1" connectable="0">
          <mxGeometry x="-0.0016" y="-7" relative="1" as="geometry">
            <mxPoint x="-26" y="7.5" as="offset"/>
          </mxGeometry>
        </mxCell>
        <mxCell id="GaQQSZ_3tVOn8GKGzT3s-2" value="give up" style="edgeStyle=orthogonalEdgeStyle;rounded=0;orthogonalLoop=1;jettySize=auto;html=1;exitX=0.5;exitY=1;exitDx=0;exitDy=0;entryX=0.5;entryY=0;entryDx=0;entryDy=0;entryPerimeter=0;" parent="1" source="ZfgZCXiSNuTh51ps36tP-39" target="GaQQSZ_3tVOn8GKGzT3s-1" edge="1">
          <mxGeometry x="0.2393" relative="1" as="geometry">
            <mxPoint as="offset"/>
          </mxGeometry>
        </mxCell>
        <mxCell id="ZfgZCXiSNuTh51ps36tP-39" value="&lt;font style=&quot;font-size: 14px&quot;&gt;ok?&lt;br&gt;&lt;/font&gt;" style="rhombus;whiteSpace=wrap;html=1;" parent="1" vertex="1">
          <mxGeometry x="581.5" y="881" width="157" height="60" as="geometry"/>
        </mxCell>
        <mxCell id="SC0irEmLNPOG6XTOwJBE-5" style="edgeStyle=orthogonalEdgeStyle;rounded=0;orthogonalLoop=1;jettySize=auto;html=1;exitX=0.5;exitY=1;exitDx=0;exitDy=0;exitPerimeter=0;" parent="1" source="QggBV8KZawPynLN42XGY-1" target="QggBV8KZawPynLN42XGY-7" edge="1">
          <mxGeometry relative="1" as="geometry"/>
        </mxCell>
        <mxCell id="QggBV8KZawPynLN42XGY-1" value="&lt;span style=&quot;font-size: 14px&quot;&gt;start&lt;/span&gt;" style="strokeWidth=2;html=1;shape=mxgraph.flowchart.terminator;whiteSpace=wrap;" parent="1" vertex="1">
          <mxGeometry x="560" y="-99.98147583007812" width="100" height="60" as="geometry"/>
        </mxCell>
        <mxCell id="QggBV8KZawPynLN42XGY-2" value="&lt;font style=&quot;font-size: 14px&quot;&gt;stop&lt;/font&gt;" style="strokeWidth=2;html=1;shape=mxgraph.flowchart.terminator;whiteSpace=wrap;" parent="1" vertex="1">
          <mxGeometry x="510" y="1003.5" width="100" height="60" as="geometry"/>
        </mxCell>
        <mxCell id="SC0irEmLNPOG6XTOwJBE-4" style="edgeStyle=orthogonalEdgeStyle;rounded=0;orthogonalLoop=1;jettySize=auto;html=1;exitX=1;exitY=0.5;exitDx=0;exitDy=0;entryX=0.75;entryY=0;entryDx=0;entryDy=0;" parent="1" source="QggBV8KZawPynLN42XGY-4" target="QggBV8KZawPynLN42XGY-7" edge="1">
          <mxGeometry relative="1" as="geometry">
            <Array as="points">
              <mxPoint x="1092" y="911"/>
              <mxPoint x="1150" y="911"/>
              <mxPoint x="1150" y="-20"/>
              <mxPoint x="655" y="-20"/>
            </Array>
          </mxGeometry>
        </mxCell>
        <mxCell id="QggBV8KZawPynLN42XGY-4" value="&lt;span style=&quot;font-size: 14px&quot;&gt;&amp;nbsp; &amp;nbsp; robot: show current&lt;br&gt;&amp;nbsp;&lt;/span&gt;&lt;span style=&quot;font-size: 14px&quot;&gt;slots and&amp;nbsp;&lt;/span&gt;&lt;span style=&quot;font-size: 14px ; white-space: normal&quot;&gt;query traffic &lt;br&gt;demands&lt;/span&gt;" style="shape=parallelogram;perimeter=parallelogramPerimeter;whiteSpace=wrap;html=1;" parent="1" vertex="1">
          <mxGeometry x="930" y="882.8571428571429" width="180" height="58" as="geometry"/>
        </mxCell>
        <mxCell id="GaQQSZ_3tVOn8GKGzT3s-4" style="edgeStyle=orthogonalEdgeStyle;rounded=0;orthogonalLoop=1;jettySize=auto;html=1;exitX=0.5;exitY=1;exitDx=0;exitDy=0;entryX=0.5;entryY=0;entryDx=0;entryDy=0;" parent="1" source="QggBV8KZawPynLN42XGY-7" target="GaQQSZ_3tVOn8GKGzT3s-3" edge="1">
          <mxGeometry relative="1" as="geometry"/>
        </mxCell>
        <mxCell id="QggBV8KZawPynLN42XGY-7" value="&lt;span style=&quot;font-size: 14px ; white-space: normal&quot;&gt;user: input demand&lt;/span&gt;" style="shape=parallelogram;perimeter=parallelogramPerimeter;whiteSpace=wrap;html=1;" parent="1" vertex="1">
          <mxGeometry x="520" y="8" width="180" height="42" as="geometry"/>
        </mxCell>
        <mxCell id="QggBV8KZawPynLN42XGY-14" style="edgeStyle=orthogonalEdgeStyle;rounded=0;orthogonalLoop=1;jettySize=auto;html=1;exitX=0.5;exitY=1;exitDx=0;exitDy=0;entryX=1;entryY=0.5;entryDx=0;entryDy=0;" parent="1" source="QggBV8KZawPynLN42XGY-10" target="QggBV8KZawPynLN42XGY-7" edge="1">
          <mxGeometry relative="1" as="geometry">
            <Array as="points">
              <mxPoint x="532" y="580"/>
              <mxPoint x="1080" y="580"/>
              <mxPoint x="1080" y="29"/>
            </Array>
          </mxGeometry>
        </mxCell>
        <mxCell id="QggBV8KZawPynLN42XGY-10" value="&lt;font style=&quot;font-size: 14px&quot;&gt;robot: ask 3&lt;br&gt;and give example&lt;br&gt;&lt;/font&gt;" style="shape=parallelogram;perimeter=parallelogramPerimeter;whiteSpace=wrap;html=1;" parent="1" vertex="1">
          <mxGeometry x="440.5" y="437" width="182" height="53" as="geometry"/>
        </mxCell>
        <mxCell id="QggBV8KZawPynLN42XGY-12" style="edgeStyle=orthogonalEdgeStyle;rounded=0;orthogonalLoop=1;jettySize=auto;html=1;exitX=0.5;exitY=1;exitDx=0;exitDy=0;entryX=1;entryY=0.5;entryDx=0;entryDy=0;" parent="1" source="QggBV8KZawPynLN42XGY-11" target="QggBV8KZawPynLN42XGY-7" edge="1">
          <mxGeometry relative="1" as="geometry">
            <Array as="points">
              <mxPoint x="742" y="580"/>
              <mxPoint x="1080" y="580"/>
              <mxPoint x="1080" y="29"/>
            </Array>
          </mxGeometry>
        </mxCell>
        <mxCell id="QggBV8KZawPynLN42XGY-11" value="&lt;span style=&quot;font-size: 14px&quot;&gt;robot: ask 2&amp;nbsp;&lt;br&gt;&lt;/span&gt;&lt;span style=&quot;font-size: 14px&quot;&gt;and give example&lt;/span&gt;" style="shape=parallelogram;perimeter=parallelogramPerimeter;whiteSpace=wrap;html=1;" parent="1" vertex="1">
          <mxGeometry x="651" y="437" width="182" height="53" as="geometry"/>
        </mxCell>
        <mxCell id="QggBV8KZawPynLN42XGY-15" style="edgeStyle=orthogonalEdgeStyle;rounded=0;orthogonalLoop=1;jettySize=auto;html=1;exitX=0.5;exitY=1;exitDx=0;exitDy=0;entryX=1;entryY=0.5;entryDx=0;entryDy=0;" parent="1" source="QggBV8KZawPynLN42XGY-13" target="QggBV8KZawPynLN42XGY-7" edge="1">
          <mxGeometry relative="1" as="geometry">
            <Array as="points">
              <mxPoint x="961" y="580"/>
              <mxPoint x="1080" y="580"/>
              <mxPoint x="1080" y="29"/>
            </Array>
          </mxGeometry>
        </mxCell>
        <mxCell id="QggBV8KZawPynLN42XGY-13" value="&lt;span style=&quot;font-size: 14px&quot;&gt;robot: ask 1&amp;nbsp;&lt;br&gt;&lt;/span&gt;&lt;span style=&quot;font-size: 14px&quot;&gt;and give example&lt;/span&gt;" style="shape=parallelogram;perimeter=parallelogramPerimeter;whiteSpace=wrap;html=1;" parent="1" vertex="1">
          <mxGeometry x="870" y="438.5" width="182" height="53" as="geometry"/>
        </mxCell>
        <mxCell id="QggBV8KZawPynLN42XGY-16" value="&lt;span style=&quot;font-size: 14px&quot;&gt;&amp;nbsp; &amp;nbsp;robot:output solution &lt;br&gt;list and confirm&lt;/span&gt;" style="shape=parallelogram;perimeter=parallelogramPerimeter;whiteSpace=wrap;html=1;" parent="1" vertex="1">
          <mxGeometry x="350.5" y="780.5" width="182" height="53" as="geometry"/>
        </mxCell>
        <mxCell id="QggBV8KZawPynLN42XGY-17" value="&lt;span style=&quot;font-size: 14px&quot;&gt;user: input confirm&lt;/span&gt;" style="shape=parallelogram;perimeter=parallelogramPerimeter;whiteSpace=wrap;html=1;" parent="1" vertex="1">
          <mxGeometry x="569" y="780.5" width="182" height="53" as="geometry"/>
        </mxCell>
        <mxCell id="SC0irEmLNPOG6XTOwJBE-3" style="edgeStyle=orthogonalEdgeStyle;rounded=0;orthogonalLoop=1;jettySize=auto;html=1;exitX=0.5;exitY=1;exitDx=0;exitDy=0;entryX=0.5;entryY=0;entryDx=0;entryDy=0;" parent="1" source="SC0irEmLNPOG6XTOwJBE-1" target="ZfgZCXiSNuTh51ps36tP-9" edge="1">
          <mxGeometry relative="1" as="geometry"/>
        </mxCell>
        <mxCell id="SC0irEmLNPOG6XTOwJBE-1" value="&lt;font style=&quot;font-size: 14px&quot;&gt;extract values and update slots&lt;/font&gt;" style="rounded=1;whiteSpace=wrap;html=1;" parent="1" vertex="1">
          <mxGeometry x="538" y="189" width="144" height="56" as="geometry"/>
        </mxCell>
        <mxCell id="8I36uN0yoBxdI9GfPvDn-5" style="edgeStyle=orthogonalEdgeStyle;rounded=0;orthogonalLoop=1;jettySize=auto;html=1;exitX=0.5;exitY=0;exitDx=0;exitDy=0;entryX=0.75;entryY=1;entryDx=0;entryDy=0;" parent="1" source="8I36uN0yoBxdI9GfPvDn-1" target="QggBV8KZawPynLN42XGY-7" edge="1">
          <mxGeometry relative="1" as="geometry">
            <Array as="points">
              <mxPoint x="889" y="80"/>
              <mxPoint x="654" y="80"/>
            </Array>
          </mxGeometry>
        </mxCell>
        <mxCell id="8I36uN0yoBxdI9GfPvDn-1" value="&lt;span style=&quot;font-size: 14px ; white-space: normal&quot;&gt;&amp;nbsp; &amp;nbsp;robot: ask and give examples &lt;br&gt;to user&lt;/span&gt;" style="shape=parallelogram;perimeter=parallelogramPerimeter;whiteSpace=wrap;html=1;" parent="1" vertex="1">
          <mxGeometry x="798.5" y="183" width="180" height="58" as="geometry"/>
        </mxCell>
        <mxCell id="f-6FJ4sSomG_5JssJ1dM-4" style="edgeStyle=orthogonalEdgeStyle;rounded=0;orthogonalLoop=1;jettySize=auto;html=1;exitX=0;exitY=0.5;exitDx=0;exitDy=0;entryX=1;entryY=0.5;entryDx=0;entryDy=0;" parent="1" source="f-6FJ4sSomG_5JssJ1dM-1" target="QggBV8KZawPynLN42XGY-17" edge="1">
          <mxGeometry relative="1" as="geometry"/>
        </mxCell>
        <mxCell id="f-6FJ4sSomG_5JssJ1dM-1" value="&lt;span style=&quot;font-size: 14px&quot;&gt;&amp;nbsp; &amp;nbsp;robot:give example answers(yes or no or change)&lt;/span&gt;" style="shape=parallelogram;perimeter=parallelogramPerimeter;whiteSpace=wrap;html=1;" parent="1" vertex="1">
          <mxGeometry x="833" y="780.5" width="182" height="53" as="geometry"/>
        </mxCell>
        <mxCell id="GaQQSZ_3tVOn8GKGzT3s-1" value="&lt;font style=&quot;font-size: 14px&quot;&gt;stop&lt;/font&gt;" style="strokeWidth=2;html=1;shape=mxgraph.flowchart.terminator;whiteSpace=wrap;" parent="1" vertex="1">
          <mxGeometry x="710" y="1003.5" width="100" height="60" as="geometry"/>
        </mxCell>
        <mxCell id="GaQQSZ_3tVOn8GKGzT3s-5" value="no" style="edgeStyle=orthogonalEdgeStyle;rounded=0;orthogonalLoop=1;jettySize=auto;html=1;exitX=0.5;exitY=1;exitDx=0;exitDy=0;entryX=0.5;entryY=0;entryDx=0;entryDy=0;" parent="1" source="GaQQSZ_3tVOn8GKGzT3s-3" target="SC0irEmLNPOG6XTOwJBE-1" edge="1">
          <mxGeometry relative="1" as="geometry">
            <Array as="points">
              <mxPoint x="610" y="160"/>
              <mxPoint x="610" y="160"/>
            </Array>
          </mxGeometry>
        </mxCell>
        <mxCell id="GaQQSZ_3tVOn8GKGzT3s-7" value="yes" style="edgeStyle=orthogonalEdgeStyle;rounded=0;orthogonalLoop=1;jettySize=auto;html=1;exitX=0;exitY=0.5;exitDx=0;exitDy=0;entryX=1;entryY=0.5;entryDx=0;entryDy=0;entryPerimeter=0;" parent="1" source="GaQQSZ_3tVOn8GKGzT3s-3" target="GaQQSZ_3tVOn8GKGzT3s-6" edge="1">
          <mxGeometry relative="1" as="geometry"/>
        </mxCell>
        <mxCell id="GaQQSZ_3tVOn8GKGzT3s-3" value="&lt;font style=&quot;font-size: 14px&quot;&gt;give up?&lt;br&gt;&lt;/font&gt;" style="rhombus;whiteSpace=wrap;html=1;" parent="1" vertex="1">
          <mxGeometry x="531.5" y="84" width="157" height="60" as="geometry"/>
        </mxCell>
        <mxCell id="GaQQSZ_3tVOn8GKGzT3s-6" value="&lt;font style=&quot;font-size: 14px&quot;&gt;stop&lt;/font&gt;" style="strokeWidth=2;html=1;shape=mxgraph.flowchart.terminator;whiteSpace=wrap;" parent="1" vertex="1">
          <mxGeometry x="312" y="85.8333740234375" width="100" height="60" as="geometry"/>
        </mxCell>
        <mxCell id="Bp368eZwY5FMxALbpwGz-5" value="Y" style="edgeStyle=orthogonalEdgeStyle;rounded=0;orthogonalLoop=1;jettySize=auto;html=1;exitX=0.5;exitY=1;exitDx=0;exitDy=0;entryX=0;entryY=0.5;entryDx=0;entryDy=0;" edge="1" parent="1" source="Bp368eZwY5FMxALbpwGz-1" target="QggBV8KZawPynLN42XGY-16">
          <mxGeometry x="-0.2241" relative="1" as="geometry">
            <Array as="points">
              <mxPoint x="338" y="807"/>
            </Array>
            <mxPoint as="offset"/>
          </mxGeometry>
        </mxCell>
        <mxCell id="Bp368eZwY5FMxALbpwGz-7" value="N" style="edgeStyle=orthogonalEdgeStyle;rounded=0;orthogonalLoop=1;jettySize=auto;html=1;exitX=1;exitY=0.5;exitDx=0;exitDy=0;entryX=0;entryY=0.5;entryDx=0;entryDy=0;" edge="1" parent="1" source="Bp368eZwY5FMxALbpwGz-1" target="Bp368eZwY5FMxALbpwGz-6">
          <mxGeometry relative="1" as="geometry"/>
        </mxCell>
        <mxCell id="Bp368eZwY5FMxALbpwGz-1" value="&lt;font&gt;&lt;font style=&quot;font-size: 14px&quot;&gt;result ?&lt;/font&gt;&lt;br&gt;&lt;/font&gt;" style="rhombus;whiteSpace=wrap;html=1;" vertex="1" parent="1">
          <mxGeometry x="260" y="700" width="157" height="60" as="geometry"/>
        </mxCell>
        <mxCell id="Bp368eZwY5FMxALbpwGz-8" style="edgeStyle=orthogonalEdgeStyle;rounded=0;orthogonalLoop=1;jettySize=auto;html=1;exitX=1;exitY=0.5;exitDx=0;exitDy=0;entryX=1;entryY=0.25;entryDx=0;entryDy=0;" edge="1" parent="1" source="Bp368eZwY5FMxALbpwGz-6" target="QggBV8KZawPynLN42XGY-7">
          <mxGeometry relative="1" as="geometry">
            <Array as="points">
              <mxPoint x="743" y="731"/>
              <mxPoint x="1120" y="731"/>
              <mxPoint x="1120" y="20"/>
            </Array>
          </mxGeometry>
        </mxCell>
        <mxCell id="Bp368eZwY5FMxALbpwGz-6" value="&lt;font style=&quot;font-size: 14px&quot;&gt;&amp;nbsp; &amp;nbsp; &amp;nbsp; robot: show current &lt;br&gt;slot values and ask&lt;br&gt;&amp;nbsp;new demands&lt;br&gt;&lt;/font&gt;" style="shape=parallelogram;perimeter=parallelogramPerimeter;whiteSpace=wrap;html=1;" vertex="1" parent="1">
          <mxGeometry x="594" y="701.5" width="166" height="57" as="geometry"/>
        </mxCell>
      </root>
    </mxGraphModel>
  </diagram>
</mxfile>
